Coordinates
version=1
nRows=5
nColumns=60
inDegrees=yes

Units are S.I. units (second, meters, Newtons, ...)
If the header above contains a line with 'inDegrees', this indicates whether rotational values are in degrees (yes) or radians (no).

endheader
time	pelvis_tilt	pelvis_list	pelvis_rotation	pelvis_tx	pelvis_ty	pelvis_tz	hip_flexion_r	hip_adduction_r	hip_rotation_r	knee_angle_r_beta	knee_angle_r	ankle_angle_r	subtalar_angle_r	mtp_angle_r	hip_flexion_l	hip_adduction_l	hip_rotation_l	knee_angle_l_beta	knee_angle_l	ankle_angle_l	subtalar_angle_l	mtp_angle_l	L5_S1_Flex_Ext	L5_S1_Lat_Bending	L5_S1_axial_rotation	L4_L5_Flex_Ext	L4_L5_Lat_Bending	L4_L5_axial_rotation	L3_L4_Flex_Ext	L3_L4_Lat_Bending	L3_L4_axial_rotation	L2_L3_Flex_Ext	L2_L3_Lat_Bending	L2_L3_axial_rotation	L1_L2_Flex_Ext	L1_L2_Lat_Bending	L1_L2_axial_rotation	L1_T12_Flex_Ext	L1_T12_Lat_Bending	L1_T12_axial_rotation	Abs_r3	Abs_r2	Abs_r1	Abs_t1	Abs_t2	arm_flex_r	arm_add_r	arm_rot_r	elbow_flex_r	pro_sup_r	wrist_flex_r	wrist_dev_r	arm_flex_l	arm_add_l	arm_rot_l	elbow_flex_l	pro_sup_l	wrist_flex_l	wrist_dev_l
     80.53000000	      0.01707108	      6.79782110	     91.64249581	      0.40468744	      0.94032419	      0.30122046	      4.37824926	     -4.83721250	      0.40506444	      0.26541480	    -15.20714758	      6.39089402	      0.00000000	      0.00000000	      4.26937656	     -5.59401168	     -2.20895167	      0.22858075	    -13.09671248	      6.16013414	      0.00000000	      0.00000000	     -6.47681463	      0.15952748	     -0.27549124	    -12.02809246	      0.21217155	     -0.29270944	    -10.64075876	      0.38787511	     -0.29270944	     -7.40235145	      0.38787511	     -0.24105484	     -6.01437007	      0.32530843	     -0.22383663	     -3.70085188	      0.24710806	     -0.20661843	    -46.26323926	      1.80460674	     -1.53219964	      0.00000000	      0.00000000	     55.20572043	    -29.15871343	     19.23779392	     77.15552895	     62.58543682	      2.19754175	     23.69845807	     54.91806289	    -29.09230006	     20.31290341	     73.45394625	     56.40842455	      6.13777328	     17.68291030
     80.54000000	      0.05496864	      7.12609793	     91.66622093	      0.40450428	      0.94059649	      0.29917628	      3.87082008	     -4.80437206	      0.28640157	      0.26527474	    -15.19912323	      6.58058410	      0.00000000	      0.00000000	      3.77271657	     -5.64565626	     -2.28078742	      0.22878015	    -13.10813685	      6.42262801	      0.00000000	      0.00000000	     -6.47553372	      0.15885645	     -0.29485989	    -12.02571366	      0.21127908	     -0.31328863	    -10.63865434	      0.38624358	     -0.31328863	     -7.40088748	      0.38624358	     -0.25800240	     -6.01318061	      0.32394008	     -0.23957366	     -3.70011996	      0.24606865	     -0.22114492	    -46.25408978	      1.79701598	     -1.63992223	      0.00000000	      0.00000000	     52.92312887	    -29.36631865	     17.90975728	     79.47595740	     63.27191339	      1.71821435	     24.01137244	     52.40692340	    -29.20208836	     18.48280139	     75.75023168	     57.15224070	      5.71916702	     17.89628359
     80.55000000	      0.10018648	      7.47286291	     91.65183028	      0.40434025	      0.94089757	      0.29713777	      3.35380004	     -4.75652818	      0.20502832	      0.26538871	    -15.20565290	      6.82295270	      0.00000000	      0.00000000	      3.25491035	     -5.70557960	     -2.36544648	      0.22910890	    -13.12697291	      6.73892190	      0.00000000	      0.00000000	     -6.48025298	      0.15747189	     -0.32692569	    -12.03447781	      0.20943761	     -0.34735854	    -10.64640762	      0.38287715	     -0.34735854	     -7.40628113	      0.38287715	     -0.28605998	     -6.01756292	      0.32111667	     -0.26562712	     -3.70281655	      0.24392395	     -0.24519426	    -46.28779900	      1.78135348	     -1.81826259	      0.00000000	      0.00000000	     50.83358695	    -29.35062977	     16.75888903	     81.62740197	     65.50369194	      0.26191813	     25.50608441	     49.78717089	    -29.27164389	     16.55535316	     78.12051036	     59.77652787	      4.34034015	     19.07536460
     80.56000000	      0.09874074	      7.80881605	     91.58052470	      0.40419501	      0.94117411	      0.29492137	      2.77266683	     -4.77833787	      0.01661917	      0.26257619	    -15.04450777	      7.14307429	      0.00000000	      0.00000000	      2.63065651	     -5.70378356	     -2.64026775	      0.22628290	    -12.96505515	      7.18854805	      0.00000000	      0.00000000	     -6.46814195	      0.15199594	     -0.32458112	    -12.01198641	      0.20215460	     -0.34486744	    -10.62651041	      0.36956293	     -0.34486744	     -7.39243943	      0.36956293	     -0.28400848	     -6.00631661	      0.30995012	     -0.26372216	     -3.69589631	      0.23544171	     -0.24343584	    -46.20129113	      1.71940849	     -1.80522281	      0.00000000	      0.00000000	     48.63196793	    -29.54100303	     15.72869502	     83.64875808	     65.58583434	      0.13747751	     25.48281974	     47.42374840	    -29.20753661	     15.28789206	     79.93015659	     59.89575651	      4.19046230	     19.00876362
     80.57000000	      0.15990187	      8.23887326	     91.49241088	      0.40418110	      0.94165361	      0.29294802	      2.19578048	     -4.70313207	      0.08498715	      0.26319390	    -15.07989977	      7.26611065	      0.00000000	      0.00000000	      2.00784074	     -5.78671187	     -2.72484540	      0.22669884	    -12.98888703	      7.37769922	      0.00000000	      0.00000000	     -6.49356578	      0.14692367	     -0.32411206	    -12.05920100	      0.19540847	     -0.34436906	    -10.66827921	      0.35723020	     -0.34436906	     -7.42149633	      0.35723020	     -0.28359805	     -6.02992518	      0.29960674	     -0.26334105	     -3.71042348	      0.22758476	     -0.24308404	    -46.38289098	      1.66202988	     -1.80261403	      0.00000000	      0.00000000	     46.37136013	    -29.59738316	     14.33917471	     85.75939709	     65.80182482	     -0.03688062	     25.47784631	     44.95879126	    -29.04333076	     13.50877825	     82.00259438	     60.21964224	      3.93973995	     18.90216625
